<?xml version="1.0" standalone="no"?>
<!DOCTYPE svg PUBLIC "-//W3C//DTD SVG 20010904//EN"
 "http://www.w3.org/TR/2001/REC-SVG-20010904/DTD/svg10.dtd">
<svg version="1.0" xmlns="http://www.w3.org/2000/svg"
 width="420.000000pt" height="420.000000pt" viewBox="0 0 420.000000 420.000000"
 preserveAspectRatio="xMidYMid meet">
<metadata>
Created by potrace 1.14, written by Peter Selinger 2001-2017
</metadata>
<g transform="translate(0.000000,420.000000) scale(0.100000,-0.100000)"
fill="#000000" stroke="none">
<path d="M1060 3893 c-48 -7 -155 -45 -197 -69 -53 -31 -147 -126 -163 -165
-7 -16 -16 -29 -20 -29 -5 0 -14 -15 -21 -32 -6 -18 -13 -35 -14 -38 -2 -3 -6
-15 -10 -27 -6 -19 -15 -23 -46 -23 -78 0 -137 -49 -146 -121 -7 -51 12 -95
54 -123 83 -57 210 6 216 107 l2 37 55 1 c30 1 87 3 125 4 88 3 235 -33 235
-57 0 -5 5 -8 12 -8 6 0 35 -24 63 -53 36 -37 51 -59 49 -77 -2 -41 -15 -118
-30 -180 -3 -14 -8 -36 -11 -50 -3 -14 -21 -46 -39 -73 -19 -26 -34 -49 -34
-51 0 -3 -16 -22 -35 -43 -19 -21 -35 -44 -35 -50 0 -7 -3 -13 -8 -13 -7 0
-33 -52 -34 -67 0 -4 -3 -12 -8 -18 -13 -17 -33 -116 -34 -175 -2 -55 -4 -60
-51 -107 -74 -72 -145 -168 -145 -193 0 -5 -4 -10 -10 -10 -5 0 -10 -7 -10
-15 0 -8 -4 -15 -9 -15 -5 0 -11 -8 -14 -17 -4 -10 -17 -36 -31 -58 -31 -49
-87 -164 -91 -188 -2 -9 -7 -22 -10 -28 -4 -5 -9 -25 -12 -42 -3 -18 -9 -39
-13 -47 -5 -9 -11 -42 -14 -75 -11 -107 -21 -169 -30 -183 -13 -21 -14 -68 -2
-87 7 -11 17 -35 21 -53 l7 -32 -29 12 c-15 7 -30 15 -33 19 -3 3 -25 15 -49
27 -74 33 -139 -1 -148 -77 -4 -30 1 -44 22 -69 15 -18 33 -32 41 -32 8 0 14
-4 14 -9 0 -5 8 -11 18 -15 18 -6 54 -27 62 -37 3 -3 28 -18 55 -34 28 -15 61
-35 75 -44 14 -9 37 -23 51 -30 31 -15 60 -64 32 -54 -9 4 -37 18 -62 32 -181
100 -217 112 -264 90 -53 -24 -64 -112 -20 -154 15 -14 33 -25 40 -25 6 0 19
-7 27 -16 9 -8 16 -12 16 -7 0 4 4 4 8 -2 8 -12 37 -30 72 -47 14 -7 37 -20
52 -31 16 -10 28 -15 28 -10 0 4 4 3 8 -2 4 -6 30 -22 57 -37 100 -52 150 -80
160 -89 14 -14 -18 -11 -51 5 -16 8 -46 21 -66 30 -21 9 -55 23 -75 33 -68 30
-112 26 -152 -15 -18 -18 -19 -85 -2 -106 7 -8 61 -38 119 -66 143 -69 176
-87 180 -99 2 -6 -21 -22 -52 -36 -31 -14 -56 -30 -56 -36 0 -44 85 -114 174
-143 18 -6 18 -7 -3 -25 -37 -33 -17 -49 67 -54 6 0 12 -4 12 -8 0 -7 75 -35
121 -45 13 -2 60 -7 105 -11 94 -7 163 6 246 47 l58 28 -3 -69 c-2 -64 0 -72
23 -89 14 -10 27 -17 29 -14 2 2 10 -1 17 -7 17 -14 131 -24 177 -15 19 3 44
15 56 25 12 10 37 29 56 42 18 13 39 33 45 44 40 75 40 74 41 23 1 -27 3 -52
4 -58 1 -5 3 -19 4 -30 0 -10 11 -28 23 -40 19 -17 35 -20 120 -20 90 0 101 2
137 28 22 15 42 34 44 42 2 10 8 7 17 -12 7 -15 21 -30 32 -33 10 -4 18 -11
18 -16 0 -5 54 -9 123 -9 108 0 126 2 141 19 9 10 18 28 21 39 2 11 9 30 15
42 9 17 13 18 25 8 36 -33 49 -41 100 -64 47 -22 66 -25 123 -21 132 9 259
102 208 153 -26 26 -19 31 52 31 73 1 186 24 231 48 16 8 45 30 65 49 20 20
53 44 73 55 21 11 53 33 72 49 28 25 33 35 27 56 -4 15 -10 25 -14 23 -4 -2
-25 2 -47 9 l-40 12 40 17 c97 41 242 115 253 128 42 51 5 137 -61 142 -31 2
-129 -30 -191 -62 -17 -9 -35 -18 -41 -19 -5 -1 -35 -14 -66 -27 -99 -45 -71
-18 44 43 62 32 155 81 207 110 52 29 114 63 137 76 109 60 123 73 123 118 0
67 -35 106 -96 106 -13 0 -68 -23 -122 -52 -53 -28 -127 -68 -164 -87 -61 -33
-89 -37 -74 -12 4 5 59 40 124 77 64 38 119 72 120 76 2 4 8 8 14 8 12 0 146
86 175 112 17 16 21 30 19 63 -3 48 -16 69 -57 90 -36 19 -66 9 -194 -68 -55
-33 -115 -69 -133 -79 l-33 -20 18 35 c10 19 44 52 80 77 93 64 101 76 95 142
-2 19 -46 70 -54 63 -11 -11 -33 30 -34 64 -2 80 -50 304 -74 349 -5 9 -22 46
-39 82 -17 36 -36 74 -43 85 -46 72 -119 167 -158 205 l-46 45 -2 79 c-1 44
-9 106 -17 138 -15 60 -64 166 -88 189 -7 8 -22 28 -32 44 -11 17 -35 52 -54
79 -20 27 -37 59 -38 70 -2 12 -10 55 -18 96 -28 143 -28 146 21 199 50 55
127 100 199 116 46 10 82 11 245 7 l55 -2 2 -36 c6 -117 166 -175 242 -88 78
89 2 230 -121 225 -33 -2 -37 1 -48 35 -21 61 -75 146 -130 202 -47 47 -122
100 -152 106 -7 2 -20 6 -28 9 -88 35 -268 43 -380 17 -42 -10 -116 -36 -165
-58 -124 -55 -433 -200 -532 -251 -46 -22 -83 -37 -83 -32 0 8 -37 24 -52 22
-5 -1 -8 4 -8 9 0 6 -9 10 -20 10 -11 0 -20 5 -20 11 0 5 -4 7 -10 4 -5 -3
-10 -1 -10 5 0 6 -4 8 -10 5 -5 -3 -10 -1 -10 5 0 6 -4 8 -10 5 -5 -3 -10 -1
-10 4 0 6 -4 11 -10 11 -5 0 -35 12 -67 27 -32 15 -60 27 -63 28 -3 0 -42 19
-87 42 -45 23 -84 39 -87 35 -3 -3 -6 0 -6 6 0 7 -6 12 -14 12 -7 0 -34 11
-60 25 -25 13 -46 22 -46 18 0 -3 -6 -1 -12 4 -14 11 -120 49 -164 58 -34 8
-218 13 -254 8z m2290 -2973 c-14 -11 -32 -20 -40 -20 -8 0 -1 9 15 20 39 26
58 26 25 0z"/>
</g>
</svg>
